<svg xmlns="http://www.w3.org/2000/svg" xmlns:xlink="http://www.w3.org/1999/xlink" width="2205" zoomAndPan="magnify" viewBox="0 0 1653.75 755.999995" height="1008" preserveAspectRatio="xMidYMid meet" version="1.0"><defs><g/></defs><g fill="#4d1703" fill-opacity="1"><g transform="translate(310.070057, 483.69921)"><g><path d="M 155.4375 -180.765625 L 192.96875 -180.765625 L 123.21875 0 L 70.6875 0 L 1.25 -180.765625 L 63.796875 -180.765625 L 125.09375 -21.578125 L 151.6875 -90.390625 C 156.269531 -102.066406 159.1875 -112.851562 160.4375 -122.75 C 161.6875 -132.65625 161.789062 -142.296875 160.75 -151.671875 C 159.707031 -161.054688 157.9375 -170.753906 155.4375 -180.765625 Z M 155.4375 -180.765625 "/></g></g></g><g fill="#4d1703" fill-opacity="1"><g transform="translate(495.215443, 483.69921)"><g><path d="M 45.34375 -189.53125 C 36.59375 -189.53125 29.191406 -192.550781 23.140625 -198.59375 C 17.097656 -204.644531 14.078125 -212.046875 14.078125 -220.796875 C 14.078125 -229.554688 17.097656 -236.957031 23.140625 -243 C 29.191406 -249.050781 36.59375 -252.078125 45.34375 -252.078125 C 54.101562 -252.078125 61.503906 -249.050781 67.546875 -243 C 73.597656 -236.957031 76.625 -229.554688 76.625 -220.796875 C 76.625 -212.046875 73.597656 -204.644531 67.546875 -198.59375 C 61.503906 -192.550781 54.101562 -189.53125 45.34375 -189.53125 Z M 76.625 0 L 14.078125 0 L 14.078125 -180.765625 L 76.625 -180.765625 Z M 76.625 0 "/></g></g></g><g fill="#4d1703" fill-opacity="1"><g transform="translate(570.274376, 483.69921)"><g><path d="M 76.625 0 L 14.078125 0 L 14.078125 -180.765625 L 76.625 -180.765625 L 76.625 -97.265625 L 76.9375 -97.265625 C 80.269531 -112.066406 85.113281 -125.617188 91.46875 -137.921875 C 97.832031 -150.222656 105.179688 -160.488281 113.515625 -168.71875 C 121.859375 -176.957031 130.828125 -182.273438 140.421875 -184.671875 C 150.015625 -187.078125 159.816406 -185.773438 169.828125 -180.765625 L 163.5625 -143.234375 C 140.84375 -153.242188 122.390625 -152.410156 108.203125 -140.734375 C 94.023438 -129.054688 83.5 -108.726562 76.625 -79.75 Z M 76.625 0 "/></g></g></g><g fill="#4d1703" fill-opacity="1"><g transform="translate(733.840305, 483.69921)"><g><path d="M 73.8125 4.6875 C 58.59375 4.6875 46.394531 2.082031 37.21875 -3.125 C 28.039062 -8.34375 21.367188 -14.910156 17.203125 -22.828125 C 13.035156 -30.753906 10.953125 -38.570312 10.953125 -46.28125 C 10.953125 -57.957031 13.453125 -68.28125 18.453125 -77.25 C 23.453125 -86.21875 30.28125 -94.085938 38.9375 -100.859375 C 47.59375 -107.640625 57.285156 -113.582031 68.015625 -118.6875 C 78.753906 -123.789062 89.960938 -128.425781 101.640625 -132.59375 C 113.316406 -136.769531 124.578125 -140.734375 135.421875 -144.484375 C 135.421875 -155.742188 133.695312 -164.550781 130.25 -170.90625 C 126.8125 -177.269531 121.34375 -180.453125 113.84375 -180.453125 C 101.75 -180.453125 89.601562 -175.5 77.40625 -165.59375 C 65.207031 -155.695312 54.207031 -142.40625 44.40625 -125.71875 L 32.84375 -169.515625 C 47.644531 -174.929688 62.601562 -179.148438 77.71875 -182.171875 C 92.832031 -185.203125 107.164062 -186.71875 120.71875 -186.71875 C 135.3125 -186.71875 148.394531 -184.785156 159.96875 -180.921875 C 171.539062 -177.066406 180.765625 -171.070312 187.640625 -162.9375 C 194.523438 -154.8125 197.96875 -144.078125 197.96875 -130.734375 L 197.96875 0 L 135.421875 0 L 135.421875 -29.71875 C 131.046875 -24.082031 125.625 -18.65625 119.15625 -13.4375 C 112.695312 -8.226562 105.609375 -3.90625 97.890625 -0.46875 C 90.171875 2.96875 82.144531 4.6875 73.8125 4.6875 Z M 104.765625 -17.515625 C 109.359375 -17.515625 114.257812 -19.285156 119.46875 -22.828125 C 124.6875 -26.367188 130.003906 -30.75 135.421875 -35.96875 L 135.421875 -138.234375 C 122.078125 -133.023438 110.816406 -127.132812 101.640625 -120.5625 C 92.460938 -114 85.476562 -105.972656 80.6875 -96.484375 C 75.894531 -86.992188 73.5 -75.160156 73.5 -60.984375 C 73.5 -48.890625 76.414062 -38.617188 82.25 -30.171875 C 88.09375 -21.734375 95.597656 -17.515625 104.765625 -17.515625 Z M 104.765625 -17.515625 "/></g></g></g><g fill="#4d1703" fill-opacity="1"><g transform="translate(928.680791, 483.69921)"><g><path d="M 82.25 5.3125 C 69.945312 5.3125 58.113281 1.925781 46.75 -4.84375 C 35.394531 -11.625 26.066406 -21.894531 18.765625 -35.65625 C 11.460938 -49.414062 7.8125 -66.820312 7.8125 -87.875 C 7.8125 -109.5625 12.242188 -127.546875 21.109375 -141.828125 C 29.972656 -156.109375 42.066406 -166.789062 57.390625 -173.875 C 72.710938 -180.96875 89.96875 -184.515625 109.15625 -184.515625 C 120.195312 -184.515625 131.660156 -182.953125 143.546875 -179.828125 L 143.546875 -219.546875 L 206.109375 -219.546875 L 206.109375 0 L 143.546875 0 L 143.546875 -36.59375 C 137.296875 -22.414062 128.59375 -11.882812 117.4375 -5 C 106.28125 1.875 94.550781 5.3125 82.25 5.3125 Z M 103.203125 -7.8125 C 109.878906 -7.8125 116.707031 -11.410156 123.6875 -18.609375 C 130.675781 -25.804688 137.296875 -35.863281 143.546875 -48.78125 L 143.546875 -172.640625 C 138.546875 -174.097656 133.335938 -174.828125 127.921875 -174.828125 C 115.828125 -174.828125 105.035156 -171.800781 95.546875 -165.75 C 86.054688 -159.707031 78.648438 -150.222656 73.328125 -137.296875 C 68.015625 -124.367188 65.359375 -107.582031 65.359375 -86.9375 C 65.359375 -61.71875 69.109375 -42.222656 76.609375 -28.453125 C 84.117188 -14.691406 92.984375 -7.8125 103.203125 -7.8125 Z M 103.203125 -7.8125 "/></g></g></g><g fill="#4d1703" fill-opacity="1"><g transform="translate(1132.590892, 483.69921)"><g><path d="M 73.8125 4.6875 C 58.59375 4.6875 46.394531 2.082031 37.21875 -3.125 C 28.039062 -8.34375 21.367188 -14.910156 17.203125 -22.828125 C 13.035156 -30.753906 10.953125 -38.570312 10.953125 -46.28125 C 10.953125 -57.957031 13.453125 -68.28125 18.453125 -77.25 C 23.453125 -86.21875 30.28125 -94.085938 38.9375 -100.859375 C 47.59375 -107.640625 57.285156 -113.582031 68.015625 -118.6875 C 78.753906 -123.789062 89.960938 -128.425781 101.640625 -132.59375 C 113.316406 -136.769531 124.578125 -140.734375 135.421875 -144.484375 C 135.421875 -155.742188 133.695312 -164.550781 130.25 -170.90625 C 126.8125 -177.269531 121.34375 -180.453125 113.84375 -180.453125 C 101.75 -180.453125 89.601562 -175.5 77.40625 -165.59375 C 65.207031 -155.695312 54.207031 -142.40625 44.40625 -125.71875 L 32.84375 -169.515625 C 47.644531 -174.929688 62.601562 -179.148438 77.71875 -182.171875 C 92.832031 -185.203125 107.164062 -186.71875 120.71875 -186.71875 C 135.3125 -186.71875 148.394531 -184.785156 159.96875 -180.921875 C 171.539062 -177.066406 180.765625 -171.070312 187.640625 -162.9375 C 194.523438 -154.8125 197.96875 -144.078125 197.96875 -130.734375 L 197.96875 0 L 135.421875 0 L 135.421875 -29.71875 C 131.046875 -24.082031 125.625 -18.65625 119.15625 -13.4375 C 112.695312 -8.226562 105.609375 -3.90625 97.890625 -0.46875 C 90.171875 2.96875 82.144531 4.6875 73.8125 4.6875 Z M 104.765625 -17.515625 C 109.359375 -17.515625 114.257812 -19.285156 119.46875 -22.828125 C 124.6875 -26.367188 130.003906 -30.75 135.421875 -35.96875 L 135.421875 -138.234375 C 122.078125 -133.023438 110.816406 -127.132812 101.640625 -120.5625 C 92.460938 -114 85.476562 -105.972656 80.6875 -96.484375 C 75.894531 -86.992188 73.5 -75.160156 73.5 -60.984375 C 73.5 -48.890625 76.414062 -38.617188 82.25 -30.171875 C 88.09375 -21.734375 95.597656 -17.515625 104.765625 -17.515625 Z M 104.765625 -17.515625 "/></g></g></g><g fill="#ad6c19" fill-opacity="1"><g transform="translate(668.422991, 242.482205)"><g><path d="M 1.890625 -17.859375 C 1.890625 -21.335938 2.695312 -24.457031 4.3125 -27.21875 C 5.9375 -29.988281 8.140625 -32.148438 10.921875 -33.703125 C 13.703125 -35.253906 16.75 -36.03125 20.0625 -36.03125 C 23.851562 -36.03125 27.222656 -35.097656 30.171875 -33.234375 C 33.128906 -31.378906 35.269531 -28.75 36.59375 -25.34375 L 29.59375 -25.34375 C 28.664062 -27.21875 27.382812 -28.613281 25.75 -29.53125 C 24.113281 -30.457031 22.21875 -30.921875 20.0625 -30.921875 C 17.707031 -30.921875 15.609375 -30.390625 13.765625 -29.328125 C 11.921875 -28.273438 10.476562 -26.757812 9.4375 -24.78125 C 8.40625 -22.800781 7.890625 -20.492188 7.890625 -17.859375 C 7.890625 -15.234375 8.40625 -12.929688 9.4375 -10.953125 C 10.476562 -8.972656 11.921875 -7.445312 13.765625 -6.375 C 15.609375 -5.300781 17.707031 -4.765625 20.0625 -4.765625 C 22.21875 -4.765625 24.113281 -5.222656 25.75 -6.140625 C 27.382812 -7.066406 28.664062 -8.46875 29.59375 -10.34375 L 36.59375 -10.34375 C 35.269531 -6.925781 33.128906 -4.296875 30.171875 -2.453125 C 27.222656 -0.609375 23.851562 0.3125 20.0625 0.3125 C 16.71875 0.3125 13.660156 -0.460938 10.890625 -2.015625 C 8.128906 -3.566406 5.9375 -5.722656 4.3125 -8.484375 C 2.695312 -11.253906 1.890625 -14.378906 1.890625 -17.859375 Z M 1.890625 -17.859375 "/></g></g></g><g fill="#ad6c19" fill-opacity="1"><g transform="translate(717.188433, 242.482205)"><g><path d="M 9.625 -35.578125 L 9.625 -12.90625 C 9.625 -10.207031 10.332031 -8.175781 11.75 -6.8125 C 13.164062 -5.445312 15.132812 -4.765625 17.65625 -4.765625 C 20.21875 -4.765625 22.207031 -5.445312 23.625 -6.8125 C 25.039062 -8.175781 25.75 -10.207031 25.75 -12.90625 L 25.75 -35.578125 L 31.578125 -35.578125 L 31.578125 -13 C 31.578125 -10.101562 30.945312 -7.644531 29.6875 -5.625 C 28.425781 -3.613281 26.738281 -2.113281 24.625 -1.125 C 22.507812 -0.132812 20.171875 0.359375 17.609375 0.359375 C 15.046875 0.359375 12.710938 -0.132812 10.609375 -1.125 C 8.515625 -2.113281 6.851562 -3.613281 5.625 -5.625 C 4.394531 -7.644531 3.78125 -10.101562 3.78125 -13 L 3.78125 -35.578125 Z M 9.625 -35.578125 "/></g></g></g><g fill="#ad6c19" fill-opacity="1"><g transform="translate(761.707239, 242.482205)"><g><path d="M 9.671875 -4.703125 L 21.703125 -4.703125 L 21.703125 0 L 3.84375 0 L 3.84375 -35.578125 L 9.671875 -35.578125 Z M 9.671875 -4.703125 "/></g></g></g><g fill="#ad6c19" fill-opacity="1"><g transform="translate(793.639662, 242.482205)"><g><path d="M 26.828125 -35.578125 L 26.828125 -30.8125 L 17.359375 -30.8125 L 17.359375 0 L 11.515625 0 L 11.515625 -30.8125 L 2 -30.8125 L 2 -35.578125 Z M 26.828125 -35.578125 "/></g></g></g><g fill="#ad6c19" fill-opacity="1"><g transform="translate(831.711785, 242.482205)"><g><path d="M 20.0625 0.359375 C 16.75 0.359375 13.703125 -0.414062 10.921875 -1.96875 C 8.140625 -3.519531 5.9375 -5.6875 4.3125 -8.46875 C 2.695312 -11.25 1.890625 -14.378906 1.890625 -17.859375 C 1.890625 -21.335938 2.695312 -24.457031 4.3125 -27.21875 C 5.9375 -29.988281 8.140625 -32.148438 10.921875 -33.703125 C 13.703125 -35.253906 16.75 -36.03125 20.0625 -36.03125 C 23.40625 -36.03125 26.46875 -35.253906 29.25 -33.703125 C 32.03125 -32.148438 34.222656 -29.988281 35.828125 -27.21875 C 37.429688 -24.457031 38.234375 -21.335938 38.234375 -17.859375 C 38.234375 -14.378906 37.429688 -11.25 35.828125 -8.46875 C 34.222656 -5.6875 32.03125 -3.519531 29.25 -1.96875 C 26.46875 -0.414062 23.40625 0.359375 20.0625 0.359375 Z M 20.0625 -4.703125 C 22.414062 -4.703125 24.515625 -5.238281 26.359375 -6.3125 C 28.203125 -7.394531 29.644531 -8.929688 30.6875 -10.921875 C 31.726562 -12.921875 32.25 -15.234375 32.25 -17.859375 C 32.25 -20.492188 31.726562 -22.800781 30.6875 -24.78125 C 29.644531 -26.757812 28.203125 -28.273438 26.359375 -29.328125 C 24.515625 -30.390625 22.414062 -30.921875 20.0625 -30.921875 C 17.707031 -30.921875 15.609375 -30.390625 13.765625 -29.328125 C 11.921875 -28.273438 10.476562 -26.757812 9.4375 -24.78125 C 8.40625 -22.800781 7.890625 -20.492188 7.890625 -17.859375 C 7.890625 -15.234375 8.40625 -12.921875 9.4375 -10.921875 C 10.476562 -8.929688 11.921875 -7.394531 13.765625 -6.3125 C 15.609375 -5.238281 17.707031 -4.703125 20.0625 -4.703125 Z M 20.0625 -4.703125 "/></g></g></g><g fill="#ad6c19" fill-opacity="1"><g transform="translate(881.040026, 242.482205)"><g/></g></g><g fill="#ad6c19" fill-opacity="1"><g transform="translate(903.558268, 242.482205)"><g><path d="M 15.453125 -35.578125 C 19.242188 -35.578125 22.5625 -34.847656 25.40625 -33.390625 C 28.257812 -31.941406 30.460938 -29.859375 32.015625 -27.140625 C 33.566406 -24.429688 34.34375 -21.269531 34.34375 -17.65625 C 34.34375 -14.039062 33.566406 -10.898438 32.015625 -8.234375 C 30.460938 -5.578125 28.257812 -3.539062 25.40625 -2.125 C 22.5625 -0.707031 19.242188 0 15.453125 0 L 3.84375 0 L 3.84375 -35.578125 Z M 15.453125 -4.765625 C 19.617188 -4.765625 22.8125 -5.890625 25.03125 -8.140625 C 27.25 -10.390625 28.359375 -13.5625 28.359375 -17.65625 C 28.359375 -21.789062 27.25 -25.015625 25.03125 -27.328125 C 22.8125 -29.648438 19.617188 -30.8125 15.453125 -30.8125 L 9.671875 -30.8125 L 9.671875 -4.765625 Z M 15.453125 -4.765625 "/></g></g></g><g fill="#ad6c19" fill-opacity="1"><g transform="translate(949.049214, 242.482205)"><g><path d="M 25.28125 -7.265625 L 10.390625 -7.265625 L 7.828125 0 L 1.734375 0 L 14.484375 -35.625 L 21.25 -35.625 L 33.984375 0 L 27.84375 0 Z M 23.65625 -12.03125 L 17.859375 -28.5625 L 12.03125 -12.03125 Z M 23.65625 -12.03125 "/></g></g></g></svg>